<svg xmlns="http://www.w3.org/2000/svg" viewBox="0 0 1086.84 1923.47"><defs><style>.cls-1{opacity:0.75;}.cls-2{fill:none;stroke:#fff;stroke-width:8px;}.cls-3{font-size:48px;font-family:PlayfairDisplay-Black, Playfair Display;}.cls-10,.cls-3{fill:#fff;font-weight:800;}.cls-4{letter-spacing:-0.01em;}.cls-5{letter-spacing:-0.01em;}.cls-6{letter-spacing:0.01em;}.cls-7{letter-spacing:-0.03em;}.cls-8{letter-spacing:-0.02em;}.cls-9{letter-spacing:0em;}.cls-10{font-size:120px;font-family:PlayfairDisplay-BlackItalic, Playfair Display;font-style:italic;}.cls-11{letter-spacing:-0.02em;}.cls-12{letter-spacing:-0.01em;}.cls-13{letter-spacing:-0.01em;}.cls-14{letter-spacing:-0.01em;}.cls-15{letter-spacing:-0.02em;}.cls-16{letter-spacing:-0.02em;}.cls-17{letter-spacing:-0.01em;}.cls-18{letter-spacing:-0.03em;}.cls-19{letter-spacing:-0.02em;}.cls-20{letter-spacing:-0.03em;}.cls-21{letter-spacing:-0.02em;}.cls-22{letter-spacing:-0.01em;}</style></defs><title>instructions_1</title><g id="Layer_2" data-name="Layer 2"><g id="_1" data-name="1"><path id="mask" class="cls-1" d="M1086.84,1923.47H0V0H1086.84ZM1072.66,136.08H8.33V362.33H1072.66Z"/><path id="arrow" class="cls-2" d="M328.11,758.16c-85.28-28.87-150.84-124.84-158.43-231.92-3.34-47.17,4.38-97.3,28.26-135.69m-25.69,21.24A71.8,71.8,0,0,1,199.7,388l1.23,34.41"/><text class="cls-3" transform="translate(375.83 753.14)">choose a <tspan class="cls-4" x="202.99" y="0">“</tspan><tspan x="226.27" y="0">cons</tspan><tspan class="cls-5" x="330.71" y="0">t</tspan><tspan x="347.23" y="0">e</tspan><tspan class="cls-6" x="371.37" y="0">l</tspan><tspan x="387.59" y="0">latio</tspan><tspan class="cls-7" x="489.11" y="0">n</tspan><tspan class="cls-8" x="517.86" y="0">”</tspan><tspan class="cls-9" x="540.47" y="0"> </tspan><tspan x="0" y="57.6">of </tspan><tspan class="cls-4" x="55.87" y="57.6">r</tspan><tspan x="78.48" y="57.6">ela</tspan><tspan class="cls-5" x="143.85" y="57.6">t</tspan><tspan x="160.37" y="57.6">ed classes</tspan></text><text class="cls-10" transform="translate(316.14 680.21)">1.</text></g><g id="_2" data-name="2"><path id="mask-2" data-name="mask" class="cls-1" d="M1086.84,1923.47H0V0H1086.84ZM478.68,428.72H18.91V695.48H478.68ZM298.3,1232.77H19v266.77H298.3Z"/><path id="arrow-2" data-name="arrow" class="cls-2" d="M412,1061.29c-82.33-22.77-142.52-107.65-145.45-205.11-1.29-42.93,8.38-89,33.39-125.09M274.2,752.33a71.89,71.89,0,0,1,27.45-23.84l1.23,34.41"/><text class="cls-3" transform="translate(444.64 1073.27)"><tspan class="cls-11">e</tspan><tspan x="23.38" y="0">xp</tspan><tspan class="cls-4" x="79.01" y="0">l</tspan><tspan x="94.27" y="0">o</tspan><tspan class="cls-4" x="121.92" y="0">r</tspan><tspan class="cls-9" x="144.53" y="0">e </tspan><tspan class="cls-12" x="179.38" y="0">r</tspan><tspan x="201.98" y="0">ela</tspan><tspan class="cls-13" x="267.36" y="0">t</tspan><tspan class="cls-9" x="283.87" y="0">ed courses </tspan><tspan x="0" y="57.6">and</tspan><tspan class="cls-14" x="84.72" y="57.6"> </tspan><tspan x="94.89" y="57.6">thei</tspan><tspan class="cls-15" x="181.53" y="57.6">r</tspan><tspan x="203.61" y="57.6"> </tspan><tspan class="cls-16" x="214.32" y="57.6">k</tspan><tspan class="cls-17" x="242.59" y="57.6">e</tspan><tspan class="cls-18" x="266.11" y="57.6">y </tspan><tspan class="cls-19" x="299.32" y="57.6">w</tspan><tspan class="cls-9" x="336.72" y="57.6">o</tspan><tspan class="cls-4" x="364.36" y="57.6">r</tspan><tspan x="386.97" y="57.6">ds</tspan></text><text class="cls-10" transform="translate(400.5 1001.2)">2.</text><path id="arrow-3" data-name="arrow" class="cls-2" d="M650.7,1177c5.81,95.81-62.32,188.91-164.63,225-45.07,15.89-97.49,21.11-144.84,6.53m14.94,21.38A71.78,71.78,0,0,1,334,1401l34.43.86"/></g><g id="_3" data-name="3"><path id="mask-3" data-name="mask" class="cls-1" d="M1086.84,1923.47H0V0H1086.84ZM913.72,1173.6H20.3V1257H913.72Z"/><path id="arrow-4" data-name="arrow" class="cls-2" d="M471.74,1140.48a118.08,118.08,0,0,1,15.75-71.25c25.87-43.77,75.47-58.5,119.87-35.6m-117.19,85.7L471.06,1148a71.85,71.85,0,0,1-10.85-34.71"/><text class="cls-3" transform="translate(676.19 1118.6)">choose a<tspan class="cls-20" x="192.28" y="0"> </tspan><tspan class="cls-21" x="201.5" y="0">y</tspan><tspan x="225.98" y="0">ea</tspan><tspan class="cls-15" x="275.61" y="0">r</tspan></text><text class="cls-10" transform="translate(637.26 1049.14)">3.</text></g><g id="_4" data-name="4"><path id="mask-4" data-name="mask" class="cls-1" d="M1086.84,1923.47H0V0H1086.84Zm-19.5-432.24H21.07v412H1067.34Z"/><path id="arrow-5" data-name="arrow" class="cls-2" d="M272.77,1450.31c-10.71-21.52-12.36-46.84-8.33-69.42,9.15-51.25,48.23-90.25,94.46-94.24M279.77,1421.9q-2.94,17-5.87,33.94a71.81,71.81,0,0,1-24-27.33"/><text class="cls-3" transform="translate(468.66 1348.94)"><tspan class="cls-4">r</tspan><tspan x="22.61" y="0">ead</tspan><tspan class="cls-14" x="101.47" y="0"> </tspan><tspan x="111.65" y="0">th</tspan><tspan class="cls-4" x="158.3" y="0">r</tspan><tspan class="cls-9" x="180.91" y="0">ough</tspan><tspan class="cls-22" x="295.63" y="0"> </tspan><tspan class="cls-9" x="305.8" y="0">the </tspan><tspan x="0" y="57.6">course descriptions</tspan></text><text class="cls-10" transform="translate(405.31 1288.73)">4.</text></g></g></svg>
